<svg aria-hidden="true" style="width:0;height:0;position:absolute;overflow:hidden" xmlns="http://www.w3.org/2000/svg"><defs><symbol id="icon-btn" viewBox="0 0 32 32"><path d="M10.125 2.694c-1.797.351-2.718 2.511-1.737 4.071.264.42.302.452 6.007 5.048 2.838 2.286 5.159 4.17 5.159 4.188s-2.391 1.958-5.313 4.312c-5.684 4.58-5.712 4.605-6.012 5.239-1.058 2.234 1.369 4.614 3.611 3.54.312-.15 13.336-10.625 13.92-11.196 1.078-1.054 1.064-2.754-.031-3.817-.558-.541-13.431-10.907-13.787-11.102a2.616 2.616 0 0 0-1.817-.283z"/></symbol></defs></svg>