<svg version="1.0" xmlns="http://www.w3.org/2000/svg" width="294.667" height="294.667" viewBox="0 0 221 221"><path d="M110.3 6c-12.4 6.3-21.5 17.7-22.8 29-.5 3.4-1.5 5.3-4.6 8.5-2.1 2.2-4.7 5.3-5.6 7-1.9 3.5-4.4 13.5-3.7 14.6.3.5-.9 2.3-2.7 4.1-6.2 6.6-10.1 17.6-9.4 27.2.2 3.7-.1 5.4-1.6 6.9-2.8 3.1-3.4 8-1.3 11.5 1.7 2.9 5.1 5.2 7.8 5.2 1 0 1.3 2.3 1.2 9.5-.1 11.8 1.4 14.5 8.2 14.8 3.6.1 4.2.5 4.3 2.4.1 1.3.2 2.6.3 3 .1.5.6 4.2 1 8.3.5 4.1 1 8.4 1.2 9.5.1 1.1.6 4.9.9 8.5.3 3.6.7 7.6 1 9 .2 1.4.7 5.2 1 8.5.3 3.3.8 7.3 1 9 .2 1.6.7 5.2 1 8 .3 2.7.8 6.2 1.1 7.8l.6 2.7H113c27.1 0 24.4 1.1 25.5-10 .4-3.6.8-7.6 1-9 .2-1.4.6-5 1-8 .3-3 1-9.1 1.6-13.5.5-4.4 1.1-9.6 1.3-11.5.3-1.9.8-6.7 1.1-10.7 1.3-13.2 1.5-13.8 5.9-14 6.6-.2 7.9-2.6 8-13.9l.1-9.6 3.8-1.5 3.8-1.6-.3-23.1-.3-23.1-3.4-5c-4.8-7-9.2-11.1-22.8-21.2-13.5-10-14.3-10.9-17.9-18.1-2.1-4.2-2.7-6.7-2.6-11.8 0-3.5.3-6.8.6-7.3.8-1.3-.3-3.8-1.9-4.5-.8-.3-4 .8-7.2 2.4zm1.8 10.2c.2 6.4.8 8.9 3.2 14.1 3.4 7.2 7.3 11.1 20.9 21 13 9.5 16.7 13 21 19.7 4.7 7.4 6.3 17.5 4 25.5l-.9 3-13.2.1c-43.7.3-71.2-16.4-65.9-40C82.6 53 89 44.7 89 49.3c0 2.4 6.4 10.5 11 13.9 4.5 3.4 14.6 8.4 22.7 11.2 3.8 1.3 4.4 1.3 5.8 0 2.9-2.9 1.9-4-7-7.4-19.7-7.6-27.4-15.4-27.5-27.6 0-9.4 4.2-17.5 12.3-23.4 2.3-1.7 4.5-3 4.9-3 .4 0 .9 1.5.9 3.2zM81.6 85.4c3.7 4.3 10.8 9.3 18 12.6 5.5 2.5 20.7 6.7 24.4 6.8.8 0 4.2.4 7.5.7 3.3.4 11.1.8 17.4.9 9.7.1 11.5.4 12.5 1.8 2.2 3.5-.3 5.2-8.4 5.5-4.5.1-7.6.7-8.1 1.5-1.2 1.9.9 4.6 3.8 5 2.8.3 2.8.3 3 8.9l.1 8.6-38.6-.1-38.7-.1-.3-8.7-.3-8.6 26.3-.1c14.5 0 28.4 0 31-.1 3.8 0 4.8-.4 5.3-2.1.4-1.2.2-2.6-.4-3.2-.8-.8-11.7-1.1-35.6-1.2-29.6 0-34.6-.2-36-1.5-1.3-1.4-1.3-1.8.1-3.8 1.2-1.7 2.3-2.1 5.5-1.9 4.7.4 7.3-1.1 6.7-3.9-.2-1.4-1.4-2-4.3-2.4l-4-.5v-7c0-5.8.5-8 2.9-12.8l2.9-5.7 2.4 4.1c1.3 2.3 3.5 5.5 4.9 7.3zm25.4 59.3c0 .2-2 2.3-4.4 4.7l-4.4 4.4-4.6-4.7-4.6-4.6 9-.1c5 0 9 .1 9 .3zm25.4 4.4-4.6 4.7-4.4-4.4c-2.4-2.4-4.4-4.5-4.4-4.7 0-.2 4.1-.3 9-.3h9l-4.6 4.7zm-14.1 4.7 4.7 4.8-4.9 4.8-4.9 4.8-5.2-4.8-5.1-4.7 4.8-4.9c2.6-2.6 5-4.8 5.3-4.8.3 0 2.7 2.2 5.3 4.8zm19.9 3.7c-.2 2.5-.6 4.5-.9 4.5-1.3 0-4.3-2.2-4.3-3.2 0-1.2 3.9-5.8 4.9-5.8.4 0 .5 2 .3 4.5zm-34.6 19.9c-2.6 2.5-5 4.6-5.3 4.6-1.6 0-8.3-7.5-8.3-9.2 0-1.1 1.9-3.7 4.3-5.8l4.2-4 4.9 5 4.9 4.9-4.7 4.5zm28.4-10.3c2.2 2.2 4 4.8 4 5.7 0 1.6-6.7 9.2-8.2 9.2-.4 0-2.8-2.1-5.3-4.7l-4.6-4.6 4.8-4.9c2.6-2.6 4.8-4.8 5-4.8.1 0 2 1.8 4.3 4.1zm-13.7 15.7 4.7 4.8-5 4.9-5 4.9-5-4.9-5-4.9 4.7-4.8c2.6-2.6 5-4.8 5.3-4.8.3 0 2.7 2.2 5.3 4.8zM93 187.1c0 .5-.4.9-1 .9-.5 0-1-.7-1-1.6 0-.8.5-1.2 1-.9.6.3 1 1 1 1.6zm41.7 0c.2 1.6-.1 1.9-.9 1.1-.5-.5-.7-1.5-.4-2.1 1-1.5 1.2-1.4 1.3 1zM109 203c0 .3-3.5.6-7.7.5l-7.8-.1-.5-2.9c-.4-2.4.1-3.5 2.5-5.7l3-2.7 5.3 5.2c2.8 2.8 5.2 5.4 5.2 5.7zm21.9-8c2 2.2 2.7 3.7 2.3 5.5-.2 1.4-.7 2.5-1.1 2.6-2.8.3-15.1.3-15.1-.1 0-.5 10.2-11 10.7-11 .2 0 1.6 1.4 3.2 3zm.7 18.2-.3 3.3-18.2.3c-14.1.2-18.1 0-18.1-1 0-.7-.3-2.3-.6-3.6l-.6-2.2H132l-.4 3.2z"/></svg>