<svg aria-hidden="true" style="position: absolute; width: 0; height: 0; overflow: hidden;" version="1.1" xmlns="http://www.w3.org/2000/svg" xmlns:xlink="http://www.w3.org/1999/xlink">
<defs>
<symbol id="icon-Frame-32" viewBox="0 0 32 32">
<path stroke-linejoin="round" stroke-linecap="round" stroke-miterlimit="4" stroke-width="5.3333" d="M10.667 5.333l13.196 10.667-13.196 10.667"></path>
</symbol>

<symbol id="icon-kisspng-greater" viewBox="0 0 23 32">
<path d="M4.362 12.003c-0.222 0.053-0.544 0.247-0.716 0.431-0.25 0.272-0.322 0.434-0.366 0.803-0.059 0.512 0.044 0.844 0.366 1.166 0.206 0.203 0.425 0.334 4.759 2.884 1.503 0.884 3.409 2.006 4.234 2.491 0.825 0.488 1.534 0.903 1.575 0.931 0.072 0.047 0.066 0.050-0.344 0.297-1.353 0.813-5.219 3.103-7.463 4.416-1.972 1.156-2.644 1.563-2.753 1.675-0.281 0.281-0.425 0.684-0.4 1.128 0.031 0.544 0.45 1.066 1.012 1.256 0.2 0.066 0.662 0.066 0.875-0.006 0.088-0.028 2.8-1.606 6.031-3.506 4.5-2.647 5.906-3.488 6.022-3.603 0.087-0.084 0.194-0.234 0.25-0.359l0.1-0.209v-2.063l-0.106-0.216c-0.219-0.444 0.156-0.206-5.894-3.756-0.588-0.344-1.475-0.866-3.266-1.919-0.506-0.3-1.103-0.65-1.328-0.781-0.222-0.131-0.697-0.409-1.050-0.619-0.612-0.359-0.656-0.378-0.922-0.425-0.306-0.056-0.438-0.059-0.619-0.016z"></path>
</symbol>

</defs>
</svg>
