<svg aria-hidden="true" style="position: absolute; width: 0; height: 0; overflow: hidden;" version="1.1" xmlns="http://www.w3.org/2000/svg" xmlns:xlink="http://www.w3.org/1999/xlink">
<defs>
<symbol id="icon-close_btn" viewBox="0 0 32 32">
<path d="M18.088 16l12.283-12.283c0.217-0.256 0.349-0.59 0.349-0.955 0-0.819-0.664-1.483-1.483-1.483-0.366 0-0.701 0.132-0.959 0.352l0.002-0.002-12.28 12.283-12.283-12.296c-0.273-0.295-0.662-0.479-1.094-0.479-0.822 0-1.488 0.666-1.488 1.488 0 0.431 0.184 0.82 0.477 1.092l0.001 0.001 12.296 12.283-12.293 12.28c-0.323 0.274-0.527 0.68-0.527 1.134 0 0.819 0.664 1.483 1.483 1.483 0.453 0 0.859-0.203 1.131-0.524l0.002-0.002 12.293-12.283 12.283 12.283c0.258 0.222 0.596 0.357 0.965 0.357 0.819 0 1.483-0.664 1.483-1.483 0-0.37-0.135-0.707-0.359-0.967l0.002 0.002-12.283-12.28z"></path>
</symbol>
</defs>
</svg>
