<svg aria-hidden="true" style="position: absolute; width: 0; height: 0; overflow: hidden;" version="1.1"
  xmlns="http://www.w3.org/2000/svg"
  xmlns:xlink="http://www.w3.org/1999/xlink">
  <defs>
    <symbol id="icon-btn" viewBox="0 0 32 32">
      <path d="M10.125 2.694c-1.797 0.351-2.718 2.511-1.737 4.071 0.264 0.42 0.302 0.452 6.007 5.048 2.838 2.286 5.159 4.17 5.159 4.188s-2.391 1.958-5.313 4.312c-5.684 4.58-5.712 4.605-6.012 5.239-1.058 2.234 1.369 4.614 3.611 3.54 0.312-0.15 13.336-10.625 13.92-11.196 1.078-1.054 1.064-2.754-0.031-3.817-0.558-0.541-13.431-10.907-13.787-11.102-0.576-0.315-1.174-0.408-1.817-0.283z"></path>
    </symbol>
  </defs>
</svg>
