<?xml version="1.0" standalone="no"?>
<!DOCTYPE svg PUBLIC "-//W3C//DTD SVG 20010904//EN"
 "http://www.w3.org/TR/2001/REC-SVG-20010904/DTD/svg10.dtd">
<svg version="1.0" xmlns="http://www.w3.org/2000/svg"
 width="221.000000pt" height="221.000000pt" viewBox="0 0 221.000000 221.000000"
 preserveAspectRatio="xMidYMid meet">
<metadata>
Created by potrace 1.14, written by Peter Selinger 2001-2017
</metadata>
<g transform="translate(0.000000,221.000000) scale(0.100000,-0.100000)"
fill="#000000" stroke="none">
<path d="M1103 2150 c-124 -63 -215 -177 -228 -290 -5 -34 -15 -53 -46 -85
-21 -22 -47 -53 -56 -70 -19 -35 -44 -135 -37 -146 3 -5 -9 -23 -27 -41 -62
-66 -101 -176 -94 -272 2 -37 -1 -54 -16 -69 -28 -31 -34 -80 -13 -115 17 -29
51 -52 78 -52 10 0 13 -23 12 -95 -1 -118 14 -145 82 -148 36 -1 42 -5 43 -24
1 -13 2 -26 3 -30 1 -5 6 -42 10 -83 5 -41 10 -84 12 -95 1 -11 6 -49 9 -85 3
-36 7 -76 10 -90 2 -14 7 -52 10 -85 3 -33 8 -73 10 -90 2 -16 7 -52 10 -80 3
-27 8 -62 11 -78 l6 -27 238 0 c271 0 244 -11 255 100 4 36 8 76 10 90 2 14 6
50 10 80 3 30 10 91 16 135 5 44 11 96 13 115 3 19 8 67 11 107 13 132 15 138
59 140 66 2 79 26 80 139 l1 96 38 15 38 16 -3 231 -3 231 -34 50 c-48 70 -92
111 -228 212 -135 100 -143 109 -179 181 -21 42 -27 67 -26 118 0 35 3 68 6
73 8 13 -3 38 -19 45 -8 3 -40 -8 -72 -24z m18 -102 c2 -64 8 -89 32 -141 34
-72 73 -111 209 -210 130 -95 167 -130 210 -197 47 -74 63 -175 40 -255 l-9
-30 -132 -1 c-437 -3 -712 164 -659 400 14 66 78 149 78 103 0 -24 64 -105
110 -139 45 -34 146 -84 227 -112 38 -13 44 -13 58 0 29 29 19 40 -70 74 -197
76 -274 154 -275 276 0 94 42 175 123 234 23 17 45 30 49 30 4 0 9 -15 9 -32z
m-305 -692 c37 -43 108 -93 180 -126 55 -25 207 -67 244 -68 8 0 42 -4 75 -7
33 -4 111 -8 174 -9 97 -1 115 -4 125 -18 22 -35 -3 -52 -84 -55 -45 -1 -76
-7 -81 -15 -12 -19 9 -46 38 -50 28 -3 28 -3 30 -89 l1 -86 -386 1 -387 1 -3
87 -3 86 263 1 c145 0 284 0 310 1 38 0 48 4 53 21 4 12 2 26 -4 32 -8 8 -117
11 -356 12 -296 0 -346 2 -360 15 -13 14 -13 18 1 38 12 17 23 21 55 19 47 -4
73 11 67 39 -2 14 -14 20 -43 24 l-40 5 0 70 c0 58 5 80 29 128 l29 57 24 -41
c13 -23 35 -55 49 -73z m254 -593 c0 -2 -20 -23 -44 -47 l-44 -44 -46 47 -46
46 90 1 c50 0 90 -1 90 -3z m254 -44 l-46 -47 -44 44 c-24 24 -44 45 -44 47 0
2 41 3 90 3 l90 0 -46 -47z m-141 -47 l47 -48 -49 -48 -49 -48 -52 48 -51 47
48 49 c26 26 50 48 53 48 3 0 27 -22 53 -48z m199 -37 c-2 -25 -6 -45 -9 -45
-13 0 -43 22 -43 32 0 12 39 58 49 58 4 0 5 -20 3 -45z m-346 -199 c-26 -25
-50 -46 -53 -46 -16 0 -83 75 -83 92 0 11 19 37 43 58 l42 40 49 -50 49 -49
-47 -45z m284 103 c22 -22 40 -48 40 -57 0 -16 -67 -92 -82 -92 -4 0 -28 21
-53 47 l-46 46 48 49 c26 26 48 48 50 48 1 0 20 -18 43 -41z m-137 -157 l47
-48 -50 -49 -50 -49 -50 49 -50 49 47 48 c26 26 50 48 53 48 3 0 27 -22 53
-48z m-253 -43 c0 -5 -4 -9 -10 -9 -5 0 -10 7 -10 16 0 8 5 12 10 9 6 -3 10
-10 10 -16z m417 0 c2 -16 -1 -19 -9 -11 -5 5 -7 15 -4 21 10 15 12 14 13 -10z
m-257 -159 c0 -3 -35 -6 -77 -5 l-78 1 -5 29 c-4 24 1 35 25 57 l30 27 53 -52
c28 -28 52 -54 52 -57z m219 80 c20 -22 27 -37 23 -55 -2 -14 -7 -25 -11 -26
-28 -3 -151 -3 -151 1 0 5 102 110 107 110 2 0 16 -14 32 -30z m7 -182 l-3
-33 -182 -3 c-141 -2 -181 0 -181 10 0 7 -3 23 -6 36 l-6 22 191 0 191 0 -4
-32z"/>
</g>
</svg>
